<svg viewBox="0 0 375 62.741327609464435" xmlns="http://www.w3.org/2000/svg">
  <g transform="matrix(1.001381758918136,0,0,1.001381758918136,6.9309046529046965,-14.59593903758497)" fill="#0a7ea4">
    <g>
      <path d="M99.859,25.475l-17.184,5.448l0.148,0.955l-7.432,2.154l0.812,4.357l-9.449-0.511l-11.467-6.13   c0,0-3.842-1.529-12.662-1.374l-1.535,1.887l-17.486,1.95l0.317-2.498l-7.546-1.716l0.094-0.962L0.069,24.562v36.621l13.14,1.196   l0.136-1.39l6.896-0.201l0.354-2.796l1.54,0.058c0.569,3.421,4.459,3.065,4.459,3.065s0.591-0.329,1.25-0.774l0.665,0.512   l-1.581,1.176c-0.066,1.234,0.116,3.255,1.46,4.268c1.574,1.186,4.031,1.012,4.629,0.378c0.204-0.217,0.753-0.702,1.342-1.318   l0.725,0.558l-2.119,2.507c1.86,3.947,6.757,2.983,6.757,2.983l0.922-1.212l0.712,0.549l-0.701,0.944   c0.928,2.465,3.733,2.511,5.033,2.39l0.983,0.757l0.167,0.064c1.094,0.422,2.177,0.566,3.166,0.537   c2.346-0.084,4.178-1.047,5.043-1.589c0.748,0.19,1.459,0.268,2.121,0.248c2.152-0.059,3.703-1.147,4.625-2.153   c0.469-0.506,0.805-0.996,1.025-1.371c2.914-0.391,4.689-1.554,5.635-2.846c0.529-0.722,0.791-1.431,0.918-1.997   c2.148-0.406,3.617-1.679,4.465-2.863c0.996-1.375,1.301-2.646,1.326-2.739l0.148-0.614l-1.449-1.69l5.67-1.608l1.236,6.631   l6.896-0.201l0.217,1.38l12.051-1.903L99.859,25.475z M18.336,58.689l-4.494,0.131l3.6-26.371l4.098,0.932L18.336,58.689z    M71.562,61.768c-0.66,0.747-1.543,1.392-2.941,1.575l-9.303-11.425l-1.91,1.555l9.555,11.733c-0.068,0.293-0.205,0.672-0.49,1.052   c-0.525,0.696-1.572,1.551-4.07,1.878l-6.531-8.495l-1.953,1.5l6.555,8.525c-0.186,0.266-0.432,0.57-0.736,0.853   c-0.639,0.588-1.463,1.075-2.639,1.112c-0.445,0.014-0.957-0.046-1.537-0.204l-3.377-4.3l-1.937,1.521l2.759,3.512   c-0.773,0.378-1.877,0.786-3.074,0.813c-0.657,0.019-1.343-0.065-2.048-0.313l-0.562-0.433l2.062-3.772   c-0.427-4.093-4.288-2.748-4.288-2.748l-2.271,3.058l-0.693-0.532l2.532-3.333c0.851-5.978-4.854-4.579-4.854-4.579l-3.136,3.711   l-0.824-0.635c0.392-0.742,0.555-1.497,0.189-2.146c-1.262-2.234-3.842-2.017-5.205-1.715l-1.219-0.938   c0.207-0.971-0.987-3.193-3.402-3.524c-1.037-0.141-1.933,0.165-2.626,0.567l-2.682-0.099l2.384-18.816l15.585-1.736L38.864,35   c0,0,3.246,7.052,9.17,1.842l8.158,4.155l16.383,19.104C72.391,60.549,72.064,61.191,71.562,61.768z M82.547,60.635l-4.678-25.078   l4.037-1.169l5.133,26.116L82.547,60.635z"></path>
    </g>
  </g>
  <g transform="matrix(3.982160000972207,0,0,3.982160000972207,122.61070248034319,-18.901872409979706)" fill="#0a7ea4">
    <path d="M8.1 20 l-2.96 0 l0 -5.8 l-1.58 0 l0 5.8 l-2.96 0 l0 -14.5 l2.96 0 l0 6.2 l1.58 0 l0 -6.2 l2.96 0 l0 14.5 z M12.48 8.04 c-0.17334 0 -0.26 0.09334 -0.26 0.28 l0 8.84 c0 0.10666 0.01666 0.18332 0.05 0.22998 s0.11 0.07 0.23 0.07 l1.1 0 c0.12 0 0.19666 -0.02334 0.23 -0.07 s0.05 -0.12332 0.05 -0.22998 l0 -8.84 c0 -0.18666 -0.08666 -0.28 -0.26 -0.28 l-1.14 0 z M16.82 17.94 c0 0.28 -0.03334 0.54334 -0.1 0.79 s-0.18 0.46332 -0.34 0.64998 s-0.37334 0.33666 -0.64 0.45 s-0.6 0.17 -1 0.17 l-3.36 0 c-0.4 0 -0.73334 -0.05666 -1 -0.17 s-0.48 -0.26334 -0.64 -0.45 s-0.27334 -0.40332 -0.34 -0.64998 s-0.1 -0.51 -0.1 -0.79 l0 -10.56 c0 -0.57334 0.15666 -1.03 0.47 -1.37 s0.81 -0.51 1.49 -0.51 l3.6 0 c0.68 0 1.17666 0.17 1.49 0.51 s0.47 0.79666 0.47 1.37 l0 10.56 z M23.74 5.5 l0.72 2.7 l-1.94 0 l0 11.8 l-2.96 0 l0 -11.8 l-1.94 0 l0.76 -2.7 l5.36 0 z M34.32 5.5 l2.96 0 l-2.28 14.5 l-2.64 0 l-1.2 -7.56 l-1.18 7.56 l-2.64 0 l-2.28 -14.5 l2.96 0 l0.92 8.44 l1.18 -8.44 l2.1 0 l1.16 8.44 z M41.26 8.04 c-0.17334 0 -0.26 0.09334 -0.26 0.28 l0 8.84 c0 0.10666 0.01666 0.18332 0.05 0.22998 s0.11 0.07 0.23 0.07 l1.1 0 c0.12 0 0.19666 -0.02334 0.23 -0.07 s0.05 -0.12332 0.05 -0.22998 l0 -8.84 c0 -0.18666 -0.08666 -0.28 -0.26 -0.28 l-1.14 0 z M45.6 17.94 c0 0.28 -0.03334 0.54334 -0.1 0.79 s-0.18 0.46332 -0.34 0.64998 s-0.37334 0.33666 -0.64 0.45 s-0.6 0.17 -1 0.17 l-3.36 0 c-0.4 0 -0.73334 -0.05666 -1 -0.17 s-0.48 -0.26334 -0.64 -0.45 s-0.27334 -0.40332 -0.34 -0.64998 s-0.1 -0.51 -0.1 -0.79 l0 -10.56 c0 -0.57334 0.15666 -1.03 0.47 -1.37 s0.81 -0.51 1.49 -0.51 l3.6 0 c0.68 0 1.17666 0.17 1.49 0.51 s0.47 0.79666 0.47 1.37 l0 10.56 z M49.7 8.04 l0 5 l1.42 0 c0.18666 0 0.28 -0.1 0.28 -0.3 l0 -4.4 c0 -0.2 -0.09334 -0.3 -0.28 -0.3 l-1.42 0 z M54.26 14.1 c0 0.32 -0.11 0.61334 -0.33 0.88 s-0.54334 0.4 -0.97 0.4 l1.52 4.62 l-3 0 l-1.4 -4.62 l-0.38 0 l0 4.62 l-2.9 0 l0 -14.5 l5.5 0 c0.68 0 1.17666 0.17 1.49 0.51 s0.47 0.79666 0.47 1.37 l0 6.72 z M58.46 11.72 l0.44 0 l1.48 -6.22 l3 0 l-1.74 6.68 l1.72 7.82 l-3.18 0 l-1.14 -5.98 l-0.58 0 l0 5.98 l-2.96 0 l0 -14.5 l2.96 0 l0 6.22 l0 0 z"></path>
  </g>
</svg>
